# xmcd
#
# Track frame offsets:
#	150
#	20838
#	51885
#	87016
#	103980
#	129888
#	156203
#	175880
#	205165
#	228097
#	245232
#	260962
#	275865
#	299223
#	321258
#
# Disc length: 4618 seconds
#
# Revision: 1
# Processed by: cddbd v1.5PL3 Copyright (c) Steve Scherf et al.
# Submitted via: audiograbber 1.81.02
#
DISCID=ec12080f
DTITLE=Various Artist - lebensart music.four
DYEAR=2003
DGENRE=Ambient
TTITLE0=de-phazz - no jive
TTITLE1=paco fernandez - sal y sol
TTITLE2=cup surfer - kiss and fly
TTITLE3=karma world - touched by an angel
TTITLE4=spot land - dans les cavernes
TTITLE5=gaudy project - long for a kiss
TTITLE6=non-mél - is my darling on the phone...?
TTITLE7=janasutra - the flow of love
TTITLE8=sushies - kyo san
TTITLE9=de-phazz - detunized gravity
TTITLE10=takura - chocy chocy
TTITLE11=terra del sol feat. silvita - end of the day
TTITLE12=paco fernandez - what's happening?
TTITLE13=tantra lovers - the dance of shiva and shakti
TTITLE14=zofka - l'automobile
EXTD=
EXTT0=
EXTT1=
EXTT2=
EXTT3=
EXTT4=
EXTT5=
EXTT6=
EXTT7=
EXTT8=
EXTT9=
EXTT10=
EXTT11=
EXTT12=
EXTT13=
EXTT14=
PLAYORDER=
